solid OpenSCAD_Model
  facet normal 0.951057 0.309017 0
    outer loop
      vertex 23 6.5 8
      vertex 22.4271 8.26336 2.5
      vertex 22.4271 8.26336 8
    endloop
  endfacet
  facet normal 0.951057 0.309017 0
    outer loop
      vertex 22.4271 8.26336 2.5
      vertex 23 6.5 8
      vertex 23 6.5 2.5
    endloop
  endfacet
  facet normal -0.951057 0.309017 0
    outer loop
      vertex 17 6.5 2.5
      vertex 17.5729 8.26336 8
      vertex 17.5729 8.26336 2.5
    endloop
  endfacet
  facet normal -0.951057 0.309017 0
    outer loop
      vertex 17.5729 8.26336 8
      vertex 17 6.5 2.5
      vertex 17 6.5 8
    endloop
  endfacet
  facet normal 0 1 -0
    outer loop
      vertex 20.9271 9.35317 2.5
      vertex 19.0729 9.35317 8
      vertex 20.9271 9.35317 8
    endloop
  endfacet
  facet normal 0 1 0
    outer loop
      vertex 19.0729 9.35317 8
      vertex 20.9271 9.35317 2.5
      vertex 19.0729 9.35317 2.5
    endloop
  endfacet
  facet normal 0.587785 0.809017 -0
    outer loop
      vertex 22.4271 8.26336 2.5
      vertex 20.9271 9.35317 8
      vertex 22.4271 8.26336 8
    endloop
  endfacet
  facet normal 0.587785 0.809017 0
    outer loop
      vertex 20.9271 9.35317 8
      vertex 22.4271 8.26336 2.5
      vertex 20.9271 9.35317 2.5
    endloop
  endfacet
  facet normal 0 0 1
    outer loop
      vertex 21 6.5 8
      vertex 23 6.5 8
      vertex 22.4271 8.26336 8
    endloop
  endfacet
  facet normal 0 0 1
    outer loop
      vertex 23 6.5 8
      vertex 21 6.5 8
      vertex 22.4271 4.73664 8
    endloop
  endfacet
  facet normal 0 0 1
    outer loop
      vertex 20.309 7.45106 8
      vertex 22.4271 8.26336 8
      vertex 20.9271 9.35317 8
    endloop
  endfacet
  facet normal 0 0 1
    outer loop
      vertex 22.4271 8.26336 8
      vertex 20.309 7.45106 8
      vertex 21 6.5 8
    endloop
  endfacet
  facet normal -0 0 1
    outer loop
      vertex 19.0729 9.35317 8
      vertex 20.309 7.45106 8
      vertex 20.9271 9.35317 8
    endloop
  endfacet
  facet normal -0 0 1
    outer loop
      vertex 17.5729 8.26336 8
      vertex 19.191 7.08778 8
      vertex 19.0729 9.35317 8
    endloop
  endfacet
  facet normal 0 0 1
    outer loop
      vertex 20.309 7.45106 8
      vertex 19.0729 9.35317 8
      vertex 19.191 7.08778 8
    endloop
  endfacet
  facet normal -0 0 1
    outer loop
      vertex 20.309 5.54894 8
      vertex 22.4271 4.73664 8
      vertex 21 6.5 8
    endloop
  endfacet
  facet normal 0 0 1
    outer loop
      vertex 22.4271 4.73664 8
      vertex 20.309 5.54894 8
      vertex 20.9271 3.64683 8
    endloop
  endfacet
  facet normal 0 0 1
    outer loop
      vertex 19.0729 3.64683 8
      vertex 20.309 5.54894 8
      vertex 19.191 5.91222 8
    endloop
  endfacet
  facet normal 0 0 1
    outer loop
      vertex 20.309 5.54894 8
      vertex 19.0729 3.64683 8
      vertex 20.9271 3.64683 8
    endloop
  endfacet
  facet normal 0 0 1
    outer loop
      vertex 17 6.5 8
      vertex 19.191 7.08778 8
      vertex 17.5729 8.26336 8
    endloop
  endfacet
  facet normal 0 0 1
    outer loop
      vertex 19.191 7.08778 8
      vertex 17 6.5 8
      vertex 19.191 5.91222 8
    endloop
  endfacet
  facet normal 0 0 1
    outer loop
      vertex 19.191 5.91222 8
      vertex 17.5729 4.73664 8
      vertex 19.0729 3.64683 8
    endloop
  endfacet
  facet normal 0 0 1
    outer loop
      vertex 19.191 5.91222 8
      vertex 17 6.5 8
      vertex 17.5729 4.73664 8
    endloop
  endfacet
  facet normal -0.587785 0.809017 0
    outer loop
      vertex 19.0729 9.35317 2.5
      vertex 17.5729 8.26336 8
      vertex 19.0729 9.35317 8
    endloop
  endfacet
  facet normal -0.587785 0.809017 0
    outer loop
      vertex 17.5729 8.26336 8
      vertex 19.0729 9.35317 2.5
      vertex 17.5729 8.26336 2.5
    endloop
  endfacet
  facet normal 0.951057 -0.309017 0
    outer loop
      vertex 22.4271 4.73664 8
      vertex 23 6.5 2.5
      vertex 23 6.5 8
    endloop
  endfacet
  facet normal 0.951057 -0.309017 0
    outer loop
      vertex 23 6.5 2.5
      vertex 22.4271 4.73664 8
      vertex 22.4271 4.73664 2.5
    endloop
  endfacet
  facet normal -0.951057 -0.309017 0
    outer loop
      vertex 17.5729 4.73664 2.5
      vertex 17 6.5 8
      vertex 17 6.5 2.5
    endloop
  endfacet
  facet normal -0.951057 -0.309017 0
    outer loop
      vertex 17 6.5 8
      vertex 17.5729 4.73664 2.5
      vertex 17.5729 4.73664 8
    endloop
  endfacet
  facet normal 0 -1 0
    outer loop
      vertex 19.0729 3.64683 2.5
      vertex 20.9271 3.64683 8
      vertex 19.0729 3.64683 8
    endloop
  endfacet
  facet normal 0 -1 -0
    outer loop
      vertex 20.9271 3.64683 8
      vertex 19.0729 3.64683 2.5
      vertex 20.9271 3.64683 2.5
    endloop
  endfacet
  facet normal 0.587785 -0.809017 0
    outer loop
      vertex 20.9271 3.64683 2.5
      vertex 22.4271 4.73664 8
      vertex 20.9271 3.64683 8
    endloop
  endfacet
  facet normal 0.587785 -0.809017 0
    outer loop
      vertex 22.4271 4.73664 8
      vertex 20.9271 3.64683 2.5
      vertex 22.4271 4.73664 2.5
    endloop
  endfacet
  facet normal -0.587785 -0.809017 0
    outer loop
      vertex 17.5729 4.73664 2.5
      vertex 19.0729 3.64683 8
      vertex 17.5729 4.73664 8
    endloop
  endfacet
  facet normal -0.587785 -0.809017 -0
    outer loop
      vertex 19.0729 3.64683 8
      vertex 17.5729 4.73664 2.5
      vertex 19.0729 3.64683 2.5
    endloop
  endfacet
  facet normal 0.809017 0.587785 0
    outer loop
      vertex 21 6.5 10.5
      vertex 20.309 7.45106 8
      vertex 20.309 7.45106 10.5
    endloop
  endfacet
  facet normal 0.809017 0.587785 0
    outer loop
      vertex 20.309 7.45106 8
      vertex 21 6.5 10.5
      vertex 21 6.5 8
    endloop
  endfacet
  facet normal -1 0 0
    outer loop
      vertex 19.191 5.91222 8
      vertex 19.191 7.08778 10.5
      vertex 19.191 7.08778 8
    endloop
  endfacet
  facet normal -1 -0 0
    outer loop
      vertex 19.191 7.08778 10.5
      vertex 19.191 5.91222 8
      vertex 19.191 5.91222 10.5
    endloop
  endfacet
  facet normal -0.309017 0.951056 0
    outer loop
      vertex 20.309 7.45106 8
      vertex 19.191 7.08778 10.5
      vertex 20.309 7.45106 10.5
    endloop
  endfacet
  facet normal -0.309017 0.951056 0
    outer loop
      vertex 19.191 7.08778 10.5
      vertex 20.309 7.45106 8
      vertex 19.191 7.08778 8
    endloop
  endfacet
  facet normal -0.309017 -0.951056 0
    outer loop
      vertex 19.191 5.91222 8
      vertex 20.309 5.54894 10.5
      vertex 19.191 5.91222 10.5
    endloop
  endfacet
  facet normal -0.309017 -0.951056 -0
    outer loop
      vertex 20.309 5.54894 10.5
      vertex 19.191 5.91222 8
      vertex 20.309 5.54894 8
    endloop
  endfacet
  facet normal 0 0 1
    outer loop
      vertex 20.309 7.45106 10.5
      vertex 20.309 5.54894 10.5
      vertex 21 6.5 10.5
    endloop
  endfacet
  facet normal -0 0 1
    outer loop
      vertex 19.191 7.08778 10.5
      vertex 20.309 5.54894 10.5
      vertex 20.309 7.45106 10.5
    endloop
  endfacet
  facet normal 0 0 1
    outer loop
      vertex 20.309 5.54894 10.5
      vertex 19.191 7.08778 10.5
      vertex 19.191 5.91222 10.5
    endloop
  endfacet
  facet normal 0.809017 -0.587785 0
    outer loop
      vertex 20.309 5.54894 10.5
      vertex 21 6.5 8
      vertex 21 6.5 10.5
    endloop
  endfacet
  facet normal 0.809017 -0.587785 0
    outer loop
      vertex 21 6.5 8
      vertex 20.309 5.54894 10.5
      vertex 20.309 5.54894 8
    endloop
  endfacet
  facet normal 0.951057 0.309017 0
    outer loop
      vertex 54 6.5 8
      vertex 53.4271 8.26336 1
      vertex 53.4271 8.26336 8
    endloop
  endfacet
  facet normal 0.951057 0.309017 0
    outer loop
      vertex 53.4271 8.26336 1
      vertex 54 6.5 8
      vertex 54 6.5 1
    endloop
  endfacet
  facet normal -0.951057 0.309017 0
    outer loop
      vertex 48 6.5 2.5
      vertex 48.5729 8.26336 8
      vertex 48.5729 8.26336 2.5
    endloop
  endfacet
  facet normal -0.951057 0.309017 0
    outer loop
      vertex 48.5729 8.26336 8
      vertex 48 6.5 2.5
      vertex 48 6.5 8
    endloop
  endfacet
  facet normal 0 1 -0
    outer loop
      vertex 51.9271 9.35317 2.5
      vertex 50.0729 9.35317 8
      vertex 51.9271 9.35317 8
    endloop
  endfacet
  facet normal 0 1 0
    outer loop
      vertex 50.0729 9.35317 8
      vertex 51.9271 9.35317 2.5
      vertex 50.0729 9.35317 2.5
    endloop
  endfacet
  facet normal 0.587785 0.809017 1.41255e-007
    outer loop
      vertex 53.4271 8.26336 8
      vertex 52.4 9.00955 2.5
      vertex 51.9271 9.35317 8
    endloop
  endfacet
  facet normal 0.587786 0.809017 -0
    outer loop
      vertex 53.4271 8.26336 1
      vertex 52.4 9.00955 2.5
      vertex 53.4271 8.26336 8
    endloop
  endfacet
  facet normal 0.587786 0.809017 0
    outer loop
      vertex 52.4 9.00955 2.5
      vertex 53.4271 8.26336 1
      vertex 52.4 9.00955 1
    endloop
  endfacet
  facet normal 0.587784 0.809018 0
    outer loop
      vertex 51.9271 9.35317 8
      vertex 52.4 9.00955 2.5
      vertex 51.9271 9.35317 2.5
    endloop
  endfacet
  facet normal 0 0 1
    outer loop
      vertex 52 6.5 8
      vertex 54 6.5 8
      vertex 53.4271 8.26336 8
    endloop
  endfacet
  facet normal 0 0 1
    outer loop
      vertex 54 6.5 8
      vertex 52 6.5 8
      vertex 53.4271 4.73664 8
    endloop
  endfacet
  facet normal 0 0 1
    outer loop
      vertex 51.309 7.45106 8
      vertex 53.4271 8.26336 8
      vertex 51.9271 9.35317 8
    endloop
  endfacet
  facet normal 0 0 1
    outer loop
      vertex 53.4271 8.26336 8
      vertex 51.309 7.45106 8
      vertex 52 6.5 8
    endloop
  endfacet
  facet normal -0 0 1
    outer loop
      vertex 50.0729 9.35317 8
      vertex 51.309 7.45106 8
      vertex 51.9271 9.35317 8
    endloop
  endfacet
  facet normal -0 0 1
    outer loop
      vertex 48.5729 8.26336 8
      vertex 50.191 7.08778 8
      vertex 50.0729 9.35317 8
    endloop
  endfacet
  facet normal 0 0 1
    outer loop
      vertex 51.309 7.45106 8
      vertex 50.0729 9.35317 8
      vertex 50.191 7.08778 8
    endloop
  endfacet
  facet normal -0 0 1
    outer loop
      vertex 51.309 5.54894 8
      vertex 53.4271 4.73664 8
      vertex 52 6.5 8
    endloop
  endfacet
  facet normal 0 0 1
    outer loop
      vertex 53.4271 4.73664 8
      vertex 51.309 5.54894 8
      vertex 51.9271 3.64683 8
    endloop
  endfacet
  facet normal 0 0 1
    outer loop
      vertex 50.0729 3.64683 8
      vertex 51.309 5.54894 8
      vertex 50.191 5.91222 8
    endloop
  endfacet
  facet normal 0 0 1
    outer loop
      vertex 51.309 5.54894 8
      vertex 50.0729 3.64683 8
      vertex 51.9271 3.64683 8
    endloop
  endfacet
  facet normal 0 0 1
    outer loop
      vertex 48 6.5 8
      vertex 50.191 7.08778 8
      vertex 48.5729 8.26336 8
    endloop
  endfacet
  facet normal 0 0 1
    outer loop
      vertex 50.191 7.08778 8
      vertex 48 6.5 8
      vertex 50.191 5.91222 8
    endloop
  endfacet
  facet normal 0 0 1
    outer loop
      vertex 50.191 5.91222 8
      vertex 48.5729 4.73664 8
      vertex 50.0729 3.64683 8
    endloop
  endfacet
  facet normal 0 0 1
    outer loop
      vertex 50.191 5.91222 8
      vertex 48 6.5 8
      vertex 48.5729 4.73664 8
    endloop
  endfacet
  facet normal -0.587785 0.809017 0
    outer loop
      vertex 50.0729 9.35317 2.5
      vertex 48.5729 8.26336 8
      vertex 50.0729 9.35317 8
    endloop
  endfacet
  facet normal -0.587785 0.809017 0
    outer loop
      vertex 48.5729 8.26336 8
      vertex 50.0729 9.35317 2.5
      vertex 48.5729 8.26336 2.5
    endloop
  endfacet
  facet normal 0.951057 -0.309017 0
    outer loop
      vertex 53.4271 4.73664 8
      vertex 54 6.5 1
      vertex 54 6.5 8
    endloop
  endfacet
  facet normal 0.951057 -0.309017 0
    outer loop
      vertex 54 6.5 1
      vertex 53.4271 4.73664 8
      vertex 53.4271 4.73664 1
    endloop
  endfacet
  facet normal -0.951057 -0.309017 0
    outer loop
      vertex 48.5729 4.73664 2.5
      vertex 48 6.5 8
      vertex 48 6.5 2.5
    endloop
  endfacet
  facet normal -0.951057 -0.309017 0
    outer loop
      vertex 48 6.5 8
      vertex 48.5729 4.73664 2.5
      vertex 48.5729 4.73664 8
    endloop
  endfacet
  facet normal 0 -1 0
    outer loop
      vertex 50.0729 3.64683 2.5
      vertex 51.9271 3.64683 8
      vertex 50.0729 3.64683 8
    endloop
  endfacet
  facet normal 0 -1 -0
    outer loop
      vertex 51.9271 3.64683 8
      vertex 50.0729 3.64683 2.5
      vertex 51.9271 3.64683 2.5
    endloop
  endfacet
  facet normal 0.587785 -0.809017 0
    outer loop
      vertex 52.4 3.99045 2.5
      vertex 51.9271 3.64683 8
      vertex 51.9271 3.64683 2.5
    endloop
  endfacet
  facet normal 0.587785 -0.809017 1.06185e-007
    outer loop
      vertex 51.9271 3.64683 8
      vertex 52.4 3.99045 2.5
      vertex 53.4271 4.73664 8
    endloop
  endfacet
  facet normal 0.587786 -0.809017 0
    outer loop
      vertex 53.4271 4.73664 1
      vertex 52.4 3.99045 2.5
      vertex 52.4 3.99045 1
    endloop
  endfacet
  facet normal 0.587786 -0.809017 0
    outer loop
      vertex 52.4 3.99045 2.5
      vertex 53.4271 4.73664 1
      vertex 53.4271 4.73664 8
    endloop
  endfacet
  facet normal -0.587785 -0.809017 0
    outer loop
      vertex 48.5729 4.73664 2.5
      vertex 50.0729 3.64683 8
      vertex 48.5729 4.73664 8
    endloop
  endfacet
  facet normal -0.587785 -0.809017 -0
    outer loop
      vertex 50.0729 3.64683 8
      vertex 48.5729 4.73664 2.5
      vertex 50.0729 3.64683 2.5
    endloop
  endfacet
  facet normal 0.809017 0.587785 0
    outer loop
      vertex 52 6.5 10.5
      vertex 51.309 7.45106 8
      vertex 51.309 7.45106 10.5
    endloop
  endfacet
  facet normal 0.809017 0.587785 0
    outer loop
      vertex 51.309 7.45106 8
      vertex 52 6.5 10.5
      vertex 52 6.5 8
    endloop
  endfacet
  facet normal -1 0 0
    outer loop
      vertex 50.191 5.91222 8
      vertex 50.191 7.08778 10.5
      vertex 50.191 7.08778 8
    endloop
  endfacet
  facet normal -1 -0 0
    outer loop
      vertex 50.191 7.08778 10.5
      vertex 50.191 5.91222 8
      vertex 50.191 5.91222 10.5
    endloop
  endfacet
  facet normal -0.309017 0.951056 0
    outer loop
      vertex 51.309 7.45106 8
      vertex 50.191 7.08778 10.5
      vertex 51.309 7.45106 10.5
    endloop
  endfacet
  facet normal -0.309017 0.951056 0
    outer loop
      vertex 50.191 7.08778 10.5
      vertex 51.309 7.45106 8
      vertex 50.191 7.08778 8
    endloop
  endfacet
  facet normal -0.309017 -0.951056 0
    outer loop
      vertex 50.191 5.91222 8
      vertex 51.309 5.54894 10.5
      vertex 50.191 5.91222 10.5
    endloop
  endfacet
  facet normal -0.309017 -0.951056 -0
    outer loop
      vertex 51.309 5.54894 10.5
      vertex 50.191 5.91222 8
      vertex 51.309 5.54894 8
    endloop
  endfacet
  facet normal 0 0 1
    outer loop
      vertex 51.309 7.45106 10.5
      vertex 51.309 5.54894 10.5
      vertex 52 6.5 10.5
    endloop
  endfacet
  facet normal -0 0 1
    outer loop
      vertex 50.191 7.08778 10.5
      vertex 51.309 5.54894 10.5
      vertex 51.309 7.45106 10.5
    endloop
  endfacet
  facet normal 0 0 1
    outer loop
      vertex 51.309 5.54894 10.5
      vertex 50.191 7.08778 10.5
      vertex 50.191 5.91222 10.5
    endloop
  endfacet
  facet normal 0.809017 -0.587785 0
    outer loop
      vertex 51.309 5.54894 10.5
      vertex 52 6.5 8
      vertex 52 6.5 10.5
    endloop
  endfacet
  facet normal 0.809017 -0.587785 0
    outer loop
      vertex 52 6.5 8
      vertex 51.309 5.54894 10.5
      vertex 51.309 5.54894 8
    endloop
  endfacet
  facet normal 0.951056 0.309017 0
    outer loop
      vertex 23 81.5 8
      vertex 22.4271 83.2634 2.5
      vertex 22.4271 83.2634 8
    endloop
  endfacet
  facet normal 0.951056 0.309017 0
    outer loop
      vertex 22.4271 83.2634 2.5
      vertex 23 81.5 8
      vertex 23 81.5 2.5
    endloop
  endfacet
  facet normal -0.951056 0.309017 0
    outer loop
      vertex 17 81.5 2.5
      vertex 17.5729 83.2634 8
      vertex 17.5729 83.2634 2.5
    endloop
  endfacet
  facet normal -0.951056 0.309017 0
    outer loop
      vertex 17.5729 83.2634 8
      vertex 17 81.5 2.5
      vertex 17 81.5 8
    endloop
  endfacet
  facet normal 0 1 -0
    outer loop
      vertex 20.9271 84.3532 2.5
      vertex 19.0729 84.3532 8
      vertex 20.9271 84.3532 8
    endloop
  endfacet
  facet normal 0 1 0
    outer loop
      vertex 19.0729 84.3532 8
      vertex 20.9271 84.3532 2.5
      vertex 19.0729 84.3532 2.5
    endloop
  endfacet
  facet normal 0.587788 0.809015 -0
    outer loop
      vertex 22.4271 83.2634 2.5
      vertex 20.9271 84.3532 8
      vertex 22.4271 83.2634 8
    endloop
  endfacet
  facet normal 0.587788 0.809015 0
    outer loop
      vertex 20.9271 84.3532 8
      vertex 22.4271 83.2634 2.5
      vertex 20.9271 84.3532 2.5
    endloop
  endfacet
  facet normal 0 0 1
    outer loop
      vertex 21 81.5 8
      vertex 23 81.5 8
      vertex 22.4271 83.2634 8
    endloop
  endfacet
  facet normal 0 0 1
    outer loop
      vertex 23 81.5 8
      vertex 21 81.5 8
      vertex 22.4271 79.7366 8
    endloop
  endfacet
  facet normal 0 0 1
    outer loop
      vertex 20.309 82.4511 8
      vertex 22.4271 83.2634 8
      vertex 20.9271 84.3532 8
    endloop
  endfacet
  facet normal 0 0 1
    outer loop
      vertex 22.4271 83.2634 8
      vertex 20.309 82.4511 8
      vertex 21 81.5 8
    endloop
  endfacet
  facet normal -0 0 1
    outer loop
      vertex 19.0729 84.3532 8
      vertex 20.309 82.4511 8
      vertex 20.9271 84.3532 8
    endloop
  endfacet
  facet normal -0 0 1
    outer loop
      vertex 17.5729 83.2634 8
      vertex 19.191 82.0878 8
      vertex 19.0729 84.3532 8
    endloop
  endfacet
  facet normal 0 0 1
    outer loop
      vertex 20.309 82.4511 8
      vertex 19.0729 84.3532 8
      vertex 19.191 82.0878 8
    endloop
  endfacet
  facet normal -0 0 1
    outer loop
      vertex 20.309 80.5489 8
      vertex 22.4271 79.7366 8
      vertex 21 81.5 8
    endloop
  endfacet
  facet normal 0 0 1
    outer loop
      vertex 22.4271 79.7366 8
      vertex 20.309 80.5489 8
      vertex 20.9271 78.6468 8
    endloop
  endfacet
  facet normal 0 0 1
    outer loop
      vertex 19.0729 78.6468 8
      vertex 20.309 80.5489 8
      vertex 19.191 80.9122 8
    endloop
  endfacet
  facet normal 0 0 1
    outer loop
      vertex 20.309 80.5489 8
      vertex 19.0729 78.6468 8
      vertex 20.9271 78.6468 8
    endloop
  endfacet
  facet normal 0 0 1
    outer loop
      vertex 17 81.5 8
      vertex 19.191 82.0878 8
      vertex 17.5729 83.2634 8
    endloop
  endfacet
  facet normal 0 0 1
    outer loop
      vertex 19.191 82.0878 8
      vertex 17 81.5 8
      vertex 19.191 80.9122 8
    endloop
  endfacet
  facet normal 0 0 1
    outer loop
      vertex 19.191 80.9122 8
      vertex 17.5729 79.7366 8
      vertex 19.0729 78.6468 8
    endloop
  endfacet
  facet normal 0 0 1
    outer loop
      vertex 19.191 80.9122 8
      vertex 17 81.5 8
      vertex 17.5729 79.7366 8
    endloop
  endfacet
  facet normal -0.587788 0.809015 0
    outer loop
      vertex 19.0729 84.3532 2.5
      vertex 17.5729 83.2634 8
      vertex 19.0729 84.3532 8
    endloop
  endfacet
  facet normal -0.587788 0.809015 0
    outer loop
      vertex 17.5729 83.2634 8
      vertex 19.0729 84.3532 2.5
      vertex 17.5729 83.2634 2.5
    endloop
  endfacet
  facet normal 0.951056 -0.309017 0
    outer loop
      vertex 22.4271 79.7366 8
      vertex 23 81.5 2.5
      vertex 23 81.5 8
    endloop
  endfacet
  facet normal 0.951056 -0.309017 0
    outer loop
      vertex 23 81.5 2.5
      vertex 22.4271 79.7366 8
      vertex 22.4271 79.7366 2.5
    endloop
  endfacet
  facet normal -0.951056 -0.309017 0
    outer loop
      vertex 17.5729 79.7366 2.5
      vertex 17 81.5 8
      vertex 17 81.5 2.5
    endloop
  endfacet
  facet normal -0.951056 -0.309017 0
    outer loop
      vertex 17 81.5 8
      vertex 17.5729 79.7366 2.5
      vertex 17.5729 79.7366 8
    endloop
  endfacet
  facet normal 0 -1 0
    outer loop
      vertex 19.0729 78.6468 2.5
      vertex 20.9271 78.6468 8
      vertex 19.0729 78.6468 8
    endloop
  endfacet
  facet normal 0 -1 -0
    outer loop
      vertex 20.9271 78.6468 8
      vertex 19.0729 78.6468 2.5
      vertex 20.9271 78.6468 2.5
    endloop
  endfacet
  facet normal 0.587788 -0.809015 0
    outer loop
      vertex 20.9271 78.6468 2.5
      vertex 22.4271 79.7366 8
      vertex 20.9271 78.6468 8
    endloop
  endfacet
  facet normal 0.587788 -0.809015 0
    outer loop
      vertex 22.4271 79.7366 8
      vertex 20.9271 78.6468 2.5
      vertex 22.4271 79.7366 2.5
    endloop
  endfacet
  facet normal -0.587788 -0.809015 0
    outer loop
      vertex 17.5729 79.7366 2.5
      vertex 19.0729 78.6468 8
      vertex 17.5729 79.7366 8
    endloop
  endfacet
  facet normal -0.587788 -0.809015 -0
    outer loop
      vertex 19.0729 78.6468 8
      vertex 17.5729 79.7366 2.5
      vertex 19.0729 78.6468 2.5
    endloop
  endfacet
  facet normal 0.809017 0.587785 0
    outer loop
      vertex 21 81.5 10.5
      vertex 20.309 82.4511 8
      vertex 20.309 82.4511 10.5
    endloop
  endfacet
  facet normal 0.809017 0.587785 0
    outer loop
      vertex 20.309 82.4511 8
      vertex 21 81.5 10.5
      vertex 21 81.5 8
    endloop
  endfacet
  facet normal -1 0 0
    outer loop
      vertex 19.191 80.9122 8
      vertex 19.191 82.0878 10.5
      vertex 19.191 82.0878 8
    endloop
  endfacet
  facet normal -1 -0 0
    outer loop
      vertex 19.191 82.0878 10.5
      vertex 19.191 80.9122 8
      vertex 19.191 80.9122 10.5
    endloop
  endfacet
  facet normal -0.309019 0.951056 0
    outer loop
      vertex 20.309 82.4511 8
      vertex 19.191 82.0878 10.5
      vertex 20.309 82.4511 10.5
    endloop
  endfacet
  facet normal -0.309019 0.951056 0
    outer loop
      vertex 19.191 82.0878 10.5
      vertex 20.309 82.4511 8
      vertex 19.191 82.0878 8
    endloop
  endfacet
  facet normal -0.309019 -0.951056 0
    outer loop
      vertex 19.191 80.9122 8
      vertex 20.309 80.5489 10.5
      vertex 19.191 80.9122 10.5
    endloop
  endfacet
  facet normal -0.309019 -0.951056 -0
    outer loop
      vertex 20.309 80.5489 10.5
      vertex 19.191 80.9122 8
      vertex 20.309 80.5489 8
    endloop
  endfacet
  facet normal 0 0 1
    outer loop
      vertex 20.309 82.4511 10.5
      vertex 20.309 80.5489 10.5
      vertex 21 81.5 10.5
    endloop
  endfacet
  facet normal -0 0 1
    outer loop
      vertex 19.191 82.0878 10.5
      vertex 20.309 80.5489 10.5
      vertex 20.309 82.4511 10.5
    endloop
  endfacet
  facet normal 0 0 1
    outer loop
      vertex 20.309 80.5489 10.5
      vertex 19.191 82.0878 10.5
      vertex 19.191 80.9122 10.5
    endloop
  endfacet
  facet normal 0.809017 -0.587785 0
    outer loop
      vertex 20.309 80.5489 10.5
      vertex 21 81.5 8
      vertex 21 81.5 10.5
    endloop
  endfacet
  facet normal 0.809017 -0.587785 0
    outer loop
      vertex 21 81.5 8
      vertex 20.309 80.5489 10.5
      vertex 20.309 80.5489 8
    endloop
  endfacet
  facet normal 0.951056 0.309017 0
    outer loop
      vertex 54 81.5 8
      vertex 53.4271 83.2634 2.5
      vertex 53.4271 83.2634 8
    endloop
  endfacet
  facet normal 0.951056 0.309017 0
    outer loop
      vertex 53.4271 83.2634 2.5
      vertex 54 81.5 8
      vertex 54 81.5 2.5
    endloop
  endfacet
  facet normal -0.951056 0.309017 0
    outer loop
      vertex 48 81.5 2.5
      vertex 48.5729 83.2634 8
      vertex 48.5729 83.2634 2.5
    endloop
  endfacet
  facet normal -0.951056 0.309017 0
    outer loop
      vertex 48.5729 83.2634 8
      vertex 48 81.5 2.5
      vertex 48 81.5 8
    endloop
  endfacet
  facet normal 0 1 -0
    outer loop
      vertex 51.9271 84.3532 2.5
      vertex 50.0729 84.3532 8
      vertex 51.9271 84.3532 8
    endloop
  endfacet
  facet normal 0 1 0
    outer loop
      vertex 50.0729 84.3532 8
      vertex 51.9271 84.3532 2.5
      vertex 50.0729 84.3532 2.5
    endloop
  endfacet
  facet normal 0.587788 0.809015 -0
    outer loop
      vertex 53.4271 83.2634 2.5
      vertex 51.9271 84.3532 8
      vertex 53.4271 83.2634 8
    endloop
  endfacet
  facet normal 0.587788 0.809015 0
    outer loop
      vertex 51.9271 84.3532 8
      vertex 53.4271 83.2634 2.5
      vertex 51.9271 84.3532 2.5
    endloop
  endfacet
  facet normal 0 0 1
    outer loop
      vertex 52 81.5 8
      vertex 54 81.5 8
      vertex 53.4271 83.2634 8
    endloop
  endfacet
  facet normal 0 0 1
    outer loop
      vertex 54 81.5 8
      vertex 52 81.5 8
      vertex 53.4271 79.7366 8
    endloop
  endfacet
  facet normal 0 0 1
    outer loop
      vertex 51.309 82.4511 8
      vertex 53.4271 83.2634 8
      vertex 51.9271 84.3532 8
    endloop
  endfacet
  facet normal 0 0 1
    outer loop
      vertex 53.4271 83.2634 8
      vertex 51.309 82.4511 8
      vertex 52 81.5 8
    endloop
  endfacet
  facet normal -0 0 1
    outer loop
      vertex 50.0729 84.3532 8
      vertex 51.309 82.4511 8
      vertex 51.9271 84.3532 8
    endloop
  endfacet
  facet normal -0 0 1
    outer loop
      vertex 48.5729 83.2634 8
      vertex 50.191 82.0878 8
      vertex 50.0729 84.3532 8
    endloop
  endfacet
  facet normal 0 0 1
    outer loop
      vertex 51.309 82.4511 8
      vertex 50.0729 84.3532 8
      vertex 50.191 82.0878 8
    endloop
  endfacet
  facet normal -0 0 1
    outer loop
      vertex 51.309 80.5489 8
      vertex 53.4271 79.7366 8
      vertex 52 81.5 8
    endloop
  endfacet
  facet normal 0 0 1
    outer loop
      vertex 53.4271 79.7366 8
      vertex 51.309 80.5489 8
      vertex 51.9271 78.6468 8
    endloop
  endfacet
  facet normal 0 0 1
    outer loop
      vertex 50.0729 78.6468 8
      vertex 51.309 80.5489 8
      vertex 50.191 80.9122 8
    endloop
  endfacet
  facet normal 0 0 1
    outer loop
      vertex 51.309 80.5489 8
      vertex 50.0729 78.6468 8
      vertex 51.9271 78.6468 8
    endloop
  endfacet
  facet normal 0 0 1
    outer loop
      vertex 48 81.5 8
      vertex 50.191 82.0878 8
      vertex 48.5729 83.2634 8
    endloop
  endfacet
  facet normal 0 0 1
    outer loop
      vertex 50.191 82.0878 8
      vertex 48 81.5 8
      vertex 50.191 80.9122 8
    endloop
  endfacet
  facet normal 0 0 1
    outer loop
      vertex 50.191 80.9122 8
      vertex 48.5729 79.7366 8
      vertex 50.0729 78.6468 8
    endloop
  endfacet
  facet normal 0 0 1
    outer loop
      vertex 50.191 80.9122 8
      vertex 48 81.5 8
      vertex 48.5729 79.7366 8
    endloop
  endfacet
  facet normal -0.587788 0.809015 0
    outer loop
      vertex 50.0729 84.3532 2.5
      vertex 48.5729 83.2634 8
      vertex 50.0729 84.3532 8
    endloop
  endfacet
  facet normal -0.587788 0.809015 0
    outer loop
      vertex 48.5729 83.2634 8
      vertex 50.0729 84.3532 2.5
      vertex 48.5729 83.2634 2.5
    endloop
  endfacet
  facet normal 0.951056 -0.309017 0
    outer loop
      vertex 53.4271 79.7366 8
      vertex 54 81.5 2.5
      vertex 54 81.5 8
    endloop
  endfacet
  facet normal 0.951056 -0.309017 0
    outer loop
      vertex 54 81.5 2.5
      vertex 53.4271 79.7366 8
      vertex 53.4271 79.7366 2.5
    endloop
  endfacet
  facet normal -0.951056 -0.309017 0
    outer loop
      vertex 48.5729 79.7366 2.5
      vertex 48 81.5 8
      vertex 48 81.5 2.5
    endloop
  endfacet
  facet normal -0.951056 -0.309017 0
    outer loop
      vertex 48 81.5 8
      vertex 48.5729 79.7366 2.5
      vertex 48.5729 79.7366 8
    endloop
  endfacet
  facet normal 0 -1 0
    outer loop
      vertex 50.0729 78.6468 2.5
      vertex 51.9271 78.6468 8
      vertex 50.0729 78.6468 8
    endloop
  endfacet
  facet normal 0 -1 -0
    outer loop
      vertex 51.9271 78.6468 8
      vertex 50.0729 78.6468 2.5
      vertex 51.9271 78.6468 2.5
    endloop
  endfacet
  facet normal 0.587788 -0.809015 0
    outer loop
      vertex 51.9271 78.6468 2.5
      vertex 53.4271 79.7366 8
      vertex 51.9271 78.6468 8
    endloop
  endfacet
  facet normal 0.587788 -0.809015 0
    outer loop
      vertex 53.4271 79.7366 8
      vertex 51.9271 78.6468 2.5
      vertex 53.4271 79.7366 2.5
    endloop
  endfacet
  facet normal -0.587788 -0.809015 0
    outer loop
      vertex 48.5729 79.7366 2.5
      vertex 50.0729 78.6468 8
      vertex 48.5729 79.7366 8
    endloop
  endfacet
  facet normal -0.587788 -0.809015 -0
    outer loop
      vertex 50.0729 78.6468 8
      vertex 48.5729 79.7366 2.5
      vertex 50.0729 78.6468 2.5
    endloop
  endfacet
  facet normal 0.809017 0.587785 0
    outer loop
      vertex 52 81.5 10.5
      vertex 51.309 82.4511 8
      vertex 51.309 82.4511 10.5
    endloop
  endfacet
  facet normal 0.809017 0.587785 0
    outer loop
      vertex 51.309 82.4511 8
      vertex 52 81.5 10.5
      vertex 52 81.5 8
    endloop
  endfacet
  facet normal -1 0 0
    outer loop
      vertex 50.191 80.9122 8
      vertex 50.191 82.0878 10.5
      vertex 50.191 82.0878 8
    endloop
  endfacet
  facet normal -1 -0 0
    outer loop
      vertex 50.191 82.0878 10.5
      vertex 50.191 80.9122 8
      vertex 50.191 80.9122 10.5
    endloop
  endfacet
  facet normal -0.309019 0.951056 0
    outer loop
      vertex 51.309 82.4511 8
      vertex 50.191 82.0878 10.5
      vertex 51.309 82.4511 10.5
    endloop
  endfacet
  facet normal -0.309019 0.951056 0
    outer loop
      vertex 50.191 82.0878 10.5
      vertex 51.309 82.4511 8
      vertex 50.191 82.0878 8
    endloop
  endfacet
  facet normal -0.309019 -0.951056 0
    outer loop
      vertex 50.191 80.9122 8
      vertex 51.309 80.5489 10.5
      vertex 50.191 80.9122 10.5
    endloop
  endfacet
  facet normal -0.309019 -0.951056 -0
    outer loop
      vertex 51.309 80.5489 10.5
      vertex 50.191 80.9122 8
      vertex 51.309 80.5489 8
    endloop
  endfacet
  facet normal 0 0 1
    outer loop
      vertex 51.309 82.4511 10.5
      vertex 51.309 80.5489 10.5
      vertex 52 81.5 10.5
    endloop
  endfacet
  facet normal -0 0 1
    outer loop
      vertex 50.191 82.0878 10.5
      vertex 51.309 80.5489 10.5
      vertex 51.309 82.4511 10.5
    endloop
  endfacet
  facet normal 0 0 1
    outer loop
      vertex 51.309 80.5489 10.5
      vertex 50.191 82.0878 10.5
      vertex 50.191 80.9122 10.5
    endloop
  endfacet
  facet normal 0.809017 -0.587785 0
    outer loop
      vertex 51.309 80.5489 10.5
      vertex 52 81.5 8
      vertex 52 81.5 10.5
    endloop
  endfacet
  facet normal 0.809017 -0.587785 0
    outer loop
      vertex 52 81.5 8
      vertex 51.309 80.5489 10.5
      vertex 51.309 80.5489 8
    endloop
  endfacet
  facet normal 0.495572 0.13279 -0.858356
    outer loop
      vertex 64.2678 87.5 0.732232
      vertex 63.0604 87.8235 0.0851851
      vertex 64.0309 88.3839 0.732232
    endloop
  endfacet
  facet normal -0.707107 -0.707107 0
    outer loop
      vertex 1.29259 0.408709 1.85295
      vertex 0.408709 1.29259 5
      vertex 0.408709 1.29259 1.85295
    endloop
  endfacet
  facet normal -0.707107 -0.707107 0
    outer loop
      vertex 0.408709 1.29259 5
      vertex 1.29259 0.408709 1.85295
      vertex 1.29259 0.408709 5
    endloop
  endfacet
  facet normal -0.707109 0.707105 0
    outer loop
      vertex 0.408709 88.7074 1.85295
      vertex 1.29259 89.5913 5
      vertex 1.29259 89.5913 1.85295
    endloop
  endfacet
  facet normal -0.707109 0.707105 0
    outer loop
      vertex 1.29259 89.5913 5
      vertex 0.408709 88.7074 1.85295
      vertex 0.408709 88.7074 5
    endloop
  endfacet
  facet normal -0.22604 0.843613 -0.487055
    outer loop
      vertex 2.5 89.2678 0.732232
      vertex 1.29259 89.5913 1.85295
      vertex 2.5 89.9148 1.85295
    endloop
  endfacet
  facet normal 0.132789 0.49557 -0.858357
    outer loop
      vertex 62.8235 88.0604 0.0851851
      vertex 62.5 89.2678 0.732232
      vertex 63.3839 89.0309 0.732232
    endloop
  endfacet
  facet normal 0.362786 0.362783 -0.858356
    outer loop
      vertex 63.0604 87.8235 0.0851851
      vertex 63.3839 89.0309 0.732232
      vertex 64.0309 88.3839 0.732232
    endloop
  endfacet
  facet normal 0.36278 0.362786 -0.858357
    outer loop
      vertex 63.3839 89.0309 0.732232
      vertex 63.0604 87.8235 0.0851851
      vertex 62.8235 88.0604 0.0851851
    endloop
  endfacet
  facet normal -0.258814 0.965927 0
    outer loop
      vertex 2.5 89.9148 1.85295
      vertex 1.29259 89.5913 5
      vertex 2.5 89.9148 5
    endloop
  endfacet
  facet normal -0.258814 0.965927 0
    outer loop
      vertex 1.29259 89.5913 5
      vertex 2.5 89.9148 1.85295
      vertex 1.29259 89.5913 1.85295
    endloop
  endfacet
  facet normal -0.84361 0.226045 -0.487058
    outer loop
      vertex 0.732232 87.5 0.732232
      vertex 0.0851851 87.5 1.85295
      vertex 0.408709 88.7074 1.85295
    endloop
  endfacet
  facet normal 0 0.866028 -0.499996
    outer loop
      vertex 62.5 89.2678 0.732232
      vertex 2.5 89.9148 1.85295
      vertex 62.5 89.9148 1.85295
    endloop
  endfacet
  facet normal 0 0.866028 -0.499996
    outer loop
      vertex 2.5 89.9148 1.85295
      vertex 62.5 89.2678 0.732232
      vertex 2.5 89.2678 0.732232
    endloop
  endfacet
  facet normal 0.258814 0.965927 -0
    outer loop
      vertex 63.7074 89.5913 1.85295
      vertex 62.5 89.9148 5
      vertex 63.7074 89.5913 5
    endloop
  endfacet
  facet normal 0.258814 0.965927 0
    outer loop
      vertex 62.5 89.9148 5
      vertex 63.7074 89.5913 1.85295
      vertex 62.5 89.9148 1.85295
    endloop
  endfacet
  facet normal 0.495572 0.132789 -0.858356
    outer loop
      vertex 63.147 87.5 0.0851851
      vertex 63.0604 87.8235 0.0851851
      vertex 64.2678 87.5 0.732232
    endloop
  endfacet
  facet normal 0.258819 -0.965926 0
    outer loop
      vertex 62.5 0.0851851 1.85295
      vertex 63.7074 0.408709 5
      vertex 62.5 0.0851851 5
    endloop
  endfacet
  facet normal 0.258819 -0.965926 0
    outer loop
      vertex 63.7074 0.408709 5
      vertex 62.5 0.0851851 1.85295
      vertex 63.7074 0.408709 1.85295
    endloop
  endfacet
  facet normal -0.36278 0.362786 -0.858357
    outer loop
      vertex 1.93964 87.8235 0.0851851
      vertex 1.61612 89.0309 0.732232
      vertex 2.17648 88.0604 0.0851851
    endloop
  endfacet
  facet normal -0.362785 0.362784 -0.858356
    outer loop
      vertex 1.61612 89.0309 0.732232
      vertex 1.93964 87.8235 0.0851851
      vertex 0.969069 88.3839 0.732232
    endloop
  endfacet
  facet normal 0 0 -1
    outer loop
      vertex 62.5 1.85295 0.0851851
      vertex 63.147 2.5 0.0851851
      vertex 63.0604 2.17648 0.0851851
    endloop
  endfacet
  facet normal 0 0 -1
    outer loop
      vertex 63.147 2.5 0.0851851
      vertex 48 80 0.0851851
      vertex 63.147 87.5 0.0851851
    endloop
  endfacet
  facet normal 0 0 -1
    outer loop
      vertex 62.5 1.85295 0.0851851
      vertex 63.0604 2.17648 0.0851851
      vertex 62.8235 1.93964 0.0851851
    endloop
  endfacet
  facet normal 0 -0 -1
    outer loop
      vertex 62.5 88.147 0.0851851
      vertex 63.147 87.5 0.0851851
      vertex 48 80 0.0851851
    endloop
  endfacet
  facet normal -0 0 -1
    outer loop
      vertex 63.147 2.5 0.0851851
      vertex 62.5 1.85295 0.0851851
      vertex 48 7 0.0851851
    endloop
  endfacet
  facet normal 0 0 -1
    outer loop
      vertex 63.147 87.5 0.0851851
      vertex 62.5 88.147 0.0851851
      vertex 63.0604 87.8235 0.0851851
    endloop
  endfacet
  facet normal 0 0 -1
    outer loop
      vertex 63.147 2.5 0.0851851
      vertex 48 7 0.0851851
      vertex 48 80 0.0851851
    endloop
  endfacet
  facet normal 0 0 -1
    outer loop
      vertex 62.5 1.85295 0.0851851
      vertex 23 7 0.0851851
      vertex 48 7 0.0851851
    endloop
  endfacet
  facet normal 0 0 -1
    outer loop
      vertex 1.85295 2.5 0.0851851
      vertex 23 7 0.0851851
      vertex 2.5 1.85295 0.0851851
    endloop
  endfacet
  facet normal 0 0 -1
    outer loop
      vertex 2.5 1.85295 0.0851851
      vertex 23 7 0.0851851
      vertex 62.5 1.85295 0.0851851
    endloop
  endfacet
  facet normal 0 0 -1
    outer loop
      vertex 63.0604 87.8235 0.0851851
      vertex 62.5 88.147 0.0851851
      vertex 62.8235 88.0604 0.0851851
    endloop
  endfacet
  facet normal 0 0 -1
    outer loop
      vertex 23 80 0.0851851
      vertex 62.5 88.147 0.0851851
      vertex 48 80 0.0851851
    endloop
  endfacet
  facet normal 0 0 -1
    outer loop
      vertex 23 80 0.0851851
      vertex 2.5 88.147 0.0851851
      vertex 62.5 88.147 0.0851851
    endloop
  endfacet
  facet normal -0 0 -1
    outer loop
      vertex 23 7 0.0851851
      vertex 1.85295 2.5 0.0851851
      vertex 23 80 0.0851851
    endloop
  endfacet
  facet normal 0 0 -1
    outer loop
      vertex 1.85295 2.5 0.0851851
      vertex 2.5 1.85295 0.0851851
      vertex 2.17648 1.93964 0.0851851
    endloop
  endfacet
  facet normal 0 0 -1
    outer loop
      vertex 1.85295 87.5 0.0851851
      vertex 23 80 0.0851851
      vertex 1.85295 2.5 0.0851851
    endloop
  endfacet
  facet normal 0 0 -1
    outer loop
      vertex 1.85295 2.5 0.0851851
      vertex 2.17648 1.93964 0.0851851
      vertex 1.93964 2.17648 0.0851851
    endloop
  endfacet
  facet normal 0 0 -1
    outer loop
      vertex 23 80 0.0851851
      vertex 1.85295 87.5 0.0851851
      vertex 2.5 88.147 0.0851851
    endloop
  endfacet
  facet normal 0 0 -1
    outer loop
      vertex 2.5 88.147 0.0851851
      vertex 1.85295 87.5 0.0851851
      vertex 2.17648 88.0604 0.0851851
    endloop
  endfacet
  facet normal 0 0 -1
    outer loop
      vertex 2.17648 88.0604 0.0851851
      vertex 1.85295 87.5 0.0851851
      vertex 1.93964 87.8235 0.0851851
    endloop
  endfacet
  facet normal 0 -1 0
    outer loop
      vertex 2.5 0.0851851 1.85295
      vertex 62.5 0.0851851 5
      vertex 2.5 0.0851851 5
    endloop
  endfacet
  facet normal 0 -1 -0
    outer loop
      vertex 62.5 0.0851851 5
      vertex 2.5 0.0851851 1.85295
      vertex 62.5 0.0851851 1.85295
    endloop
  endfacet
  facet normal 0 1 -0
    outer loop
      vertex 62.5 89.9148 1.85295
      vertex 2.5 89.9148 5
      vertex 62.5 89.9148 5
    endloop
  endfacet
  facet normal 0 1 0
    outer loop
      vertex 2.5 89.9148 5
      vertex 62.5 89.9148 1.85295
      vertex 2.5 89.9148 1.85295
    endloop
  endfacet
  facet normal 0.707107 0.707107 0
    outer loop
      vertex 64.5913 88.7074 5
      vertex 63.7074 89.5913 1.85295
      vertex 63.7074 89.5913 5
    endloop
  endfacet
  facet normal 0.707107 0.707107 0
    outer loop
      vertex 63.7074 89.5913 1.85295
      vertex 64.5913 88.7074 5
      vertex 64.5913 88.7074 1.85295
    endloop
  endfacet
  facet normal 0.617567 -0.617565 -0.487057
    outer loop
      vertex 64.0309 1.61612 0.732232
      vertex 63.7074 0.408709 1.85295
      vertex 63.3839 0.969069 0.732232
    endloop
  endfacet
  facet normal 0.617563 -0.617567 -0.48706
    outer loop
      vertex 63.7074 0.408709 1.85295
      vertex 64.0309 1.61612 0.732232
      vertex 64.5913 1.29259 1.85295
    endloop
  endfacet
  facet normal -0.226045 -0.84361 -0.487058
    outer loop
      vertex 2.5 0.0851851 1.85295
      vertex 1.29259 0.408709 1.85295
      vertex 2.5 0.732232 0.732232
    endloop
  endfacet
  facet normal -0.84361 -0.226045 -0.487058
    outer loop
      vertex 0.969069 1.61612 0.732232
      vertex 0.408709 1.29259 1.85295
      vertex 0.732232 2.5 0.732232
    endloop
  endfacet
  facet normal 0.362785 -0.362783 -0.858356
    outer loop
      vertex 63.3839 0.969069 0.732232
      vertex 63.0604 2.17648 0.0851851
      vertex 64.0309 1.61612 0.732232
    endloop
  endfacet
  facet normal 0.362784 -0.362784 -0.858357
    outer loop
      vertex 63.0604 2.17648 0.0851851
      vertex 63.3839 0.969069 0.732232
      vertex 62.8235 1.93964 0.0851851
    endloop
  endfacet
  facet normal 0.132795 0.495571 -0.858356
    outer loop
      vertex 62.8235 88.0604 0.0851851
      vertex 62.5 88.147 0.0851851
      vertex 62.5 89.2678 0.732232
    endloop
  endfacet
  facet normal -0.495572 -0.132788 -0.858357
    outer loop
      vertex 0.969069 1.61612 0.732232
      vertex 0.732232 2.5 0.732232
      vertex 1.93964 2.17648 0.0851851
    endloop
  endfacet
  facet normal -0.965926 -0.258819 0
    outer loop
      vertex 0.408709 1.29259 1.85295
      vertex 0.0851851 2.5 5
      vertex 0.0851851 2.5 1.85295
    endloop
  endfacet
  facet normal -0.965926 -0.258819 0
    outer loop
      vertex 0.0851851 2.5 5
      vertex 0.408709 1.29259 1.85295
      vertex 0.408709 1.29259 5
    endloop
  endfacet
  facet normal -1 0 0
    outer loop
      vertex 0.0851851 2.5 1.85295
      vertex 0.0851851 87.5 5
      vertex 0.0851851 87.5 1.85295
    endloop
  endfacet
  facet normal -1 -0 0
    outer loop
      vertex 0.0851851 87.5 5
      vertex 0.0851851 2.5 1.85295
      vertex 0.0851851 2.5 5
    endloop
  endfacet
  facet normal -0.965926 0.258819 0
    outer loop
      vertex 0.0851851 87.5 1.85295
      vertex 0.408709 88.7074 5
      vertex 0.408709 88.7074 1.85295
    endloop
  endfacet
  facet normal -0.965926 0.258819 0
    outer loop
      vertex 0.408709 88.7074 5
      vertex 0.0851851 87.5 1.85295
      vertex 0.0851851 87.5 5
    endloop
  endfacet
  facet normal 0.617565 0.617565 -0.487059
    outer loop
      vertex 64.5913 88.7074 1.85295
      vertex 63.3839 89.0309 0.732232
      vertex 63.7074 89.5913 1.85295
    endloop
  endfacet
  facet normal 0.617566 0.617563 -0.487061
    outer loop
      vertex 63.3839 89.0309 0.732232
      vertex 64.5913 88.7074 1.85295
      vertex 64.0309 88.3839 0.732232
    endloop
  endfacet
  facet normal 0.965927 0.258814 0
    outer loop
      vertex 64.9148 87.5 5
      vertex 64.5913 88.7074 1.85295
      vertex 64.5913 88.7074 5
    endloop
  endfacet
  facet normal 0.965927 0.258814 0
    outer loop
      vertex 64.5913 88.7074 1.85295
      vertex 64.9148 87.5 5
      vertex 64.9148 87.5 1.85295
    endloop
  endfacet
  facet normal 0.499999 0 -0.866026
    outer loop
      vertex 63.147 2.5 0.0851851
      vertex 64.2678 87.5 0.732232
      vertex 64.2678 2.5 0.732232
    endloop
  endfacet
  facet normal 0.499999 0 -0.866026
    outer loop
      vertex 64.2678 87.5 0.732232
      vertex 63.147 2.5 0.0851851
      vertex 63.147 87.5 0.0851851
    endloop
  endfacet
  facet normal 0.226041 0.843613 -0.487055
    outer loop
      vertex 63.7074 89.5913 1.85295
      vertex 62.5 89.2678 0.732232
      vertex 62.5 89.9148 1.85295
    endloop
  endfacet
  facet normal 0.226047 0.843608 -0.48706
    outer loop
      vertex 63.3839 89.0309 0.732232
      vertex 62.5 89.2678 0.732232
      vertex 63.7074 89.5913 1.85295
    endloop
  endfacet
  facet normal 0 0.499999 -0.866026
    outer loop
      vertex 2.5 88.147 0.0851851
      vertex 62.5 89.2678 0.732232
      vertex 62.5 88.147 0.0851851
    endloop
  endfacet
  facet normal 0 0.499999 -0.866026
    outer loop
      vertex 62.5 89.2678 0.732232
      vertex 2.5 88.147 0.0851851
      vertex 2.5 89.2678 0.732232
    endloop
  endfacet
  facet normal -0.226047 0.843608 -0.487061
    outer loop
      vertex 1.61612 89.0309 0.732232
      vertex 1.29259 89.5913 1.85295
      vertex 2.5 89.2678 0.732232
    endloop
  endfacet
  facet normal -0.132789 0.49557 -0.858357
    outer loop
      vertex 2.17648 88.0604 0.0851851
      vertex 1.61612 89.0309 0.732232
      vertex 2.5 89.2678 0.732232
    endloop
  endfacet
  facet normal 0 -0.499999 -0.866026
    outer loop
      vertex 62.5 0.732232 0.732232
      vertex 2.5 1.85295 0.0851851
      vertex 62.5 1.85295 0.0851851
    endloop
  endfacet
  facet normal 0 -0.499999 -0.866026
    outer loop
      vertex 2.5 1.85295 0.0851851
      vertex 62.5 0.732232 0.732232
      vertex 2.5 0.732232 0.732232
    endloop
  endfacet
  facet normal -0.617565 -0.617565 -0.487058
    outer loop
      vertex 1.61612 0.969069 0.732232
      vertex 0.408709 1.29259 1.85295
      vertex 0.969069 1.61612 0.732232
    endloop
  endfacet
  facet normal -0.617565 -0.617565 -0.487058
    outer loop
      vertex 0.408709 1.29259 1.85295
      vertex 1.61612 0.969069 0.732232
      vertex 1.29259 0.408709 1.85295
    endloop
  endfacet
  facet normal -0.495572 0.132788 -0.858357
    outer loop
      vertex 1.85295 87.5 0.0851851
      vertex 0.732232 87.5 0.732232
      vertex 1.93964 87.8235 0.0851851
    endloop
  endfacet
  facet normal -0.866026 0 -0.499999
    outer loop
      vertex 0.732232 2.5 0.732232
      vertex 0.0851851 87.5 1.85295
      vertex 0.732232 87.5 0.732232
    endloop
  endfacet
  facet normal -0.866026 -0 -0.499999
    outer loop
      vertex 0.0851851 87.5 1.85295
      vertex 0.732232 2.5 0.732232
      vertex 0.0851851 2.5 1.85295
    endloop
  endfacet
  facet normal -0.499999 0 -0.866026
    outer loop
      vertex 0.732232 2.5 0.732232
      vertex 1.85295 87.5 0.0851851
      vertex 1.85295 2.5 0.0851851
    endloop
  endfacet
  facet normal -0.499999 0 -0.866026
    outer loop
      vertex 1.85295 87.5 0.0851851
      vertex 0.732232 2.5 0.732232
      vertex 0.732232 87.5 0.732232
    endloop
  endfacet
  facet normal -0.258819 -0.965926 0
    outer loop
      vertex 1.29259 0.408709 1.85295
      vertex 2.5 0.0851851 5
      vertex 1.29259 0.408709 5
    endloop
  endfacet
  facet normal -0.258819 -0.965926 -0
    outer loop
      vertex 2.5 0.0851851 5
      vertex 1.29259 0.408709 1.85295
      vertex 2.5 0.0851851 1.85295
    endloop
  endfacet
  facet normal 0.843613 0.226041 -0.487055
    outer loop
      vertex 64.9148 87.5 1.85295
      vertex 64.2678 87.5 0.732232
      vertex 64.5913 88.7074 1.85295
    endloop
  endfacet
  facet normal 0.843608 0.226048 -0.487061
    outer loop
      vertex 64.2678 87.5 0.732232
      vertex 64.0309 88.3839 0.732232
      vertex 64.5913 88.7074 1.85295
    endloop
  endfacet
  facet normal 0.843613 -0.22604 -0.487055
    outer loop
      vertex 64.5913 1.29259 1.85295
      vertex 64.2678 2.5 0.732232
      vertex 64.9148 2.5 1.85295
    endloop
  endfacet
  facet normal 0 -0.866026 -0.499999
    outer loop
      vertex 2.5 0.732232 0.732232
      vertex 62.5 0.0851851 1.85295
      vertex 2.5 0.0851851 1.85295
    endloop
  endfacet
  facet normal 0 -0.866026 -0.499999
    outer loop
      vertex 62.5 0.0851851 1.85295
      vertex 2.5 0.732232 0.732232
      vertex 62.5 0.732232 0.732232
    endloop
  endfacet
  facet normal 0.132788 -0.495572 -0.858357
    outer loop
      vertex 63.3839 0.969069 0.732232
      vertex 62.5 0.732232 0.732232
      vertex 62.5 1.85295 0.0851851
    endloop
  endfacet
  facet normal 0.843608 -0.226047 -0.487061
    outer loop
      vertex 64.5913 1.29259 1.85295
      vertex 64.0309 1.61612 0.732232
      vertex 64.2678 2.5 0.732232
    endloop
  endfacet
  facet normal -0.132795 0.495571 -0.858356
    outer loop
      vertex 2.5 88.147 0.0851851
      vertex 2.17648 88.0604 0.0851851
      vertex 2.5 89.2678 0.732232
    endloop
  endfacet
  facet normal -0.495572 0.132789 -0.858356
    outer loop
      vertex 1.93964 87.8235 0.0851851
      vertex 0.732232 87.5 0.732232
      vertex 0.969069 88.3839 0.732232
    endloop
  endfacet
  facet normal -0.132788 -0.495572 -0.858357
    outer loop
      vertex 2.5 0.732232 0.732232
      vertex 1.61612 0.969069 0.732232
      vertex 2.17648 1.93964 0.0851851
    endloop
  endfacet
  facet normal -0.226045 -0.84361 -0.487058
    outer loop
      vertex 2.5 0.732232 0.732232
      vertex 1.29259 0.408709 1.85295
      vertex 1.61612 0.969069 0.732232
    endloop
  endfacet
  facet normal -0.495572 -0.132788 -0.858357
    outer loop
      vertex 1.93964 2.17648 0.0851851
      vertex 0.732232 2.5 0.732232
      vertex 1.85295 2.5 0.0851851
    endloop
  endfacet
  facet normal -0.84361 -0.226044 -0.487058
    outer loop
      vertex 0.408709 1.29259 1.85295
      vertex 0.0851851 2.5 1.85295
      vertex 0.732232 2.5 0.732232
    endloop
  endfacet
  facet normal 0.495572 -0.132789 -0.858356
    outer loop
      vertex 64.2678 2.5 0.732232
      vertex 63.0604 2.17648 0.0851851
      vertex 63.147 2.5 0.0851851
    endloop
  endfacet
  facet normal 0.495572 -0.13279 -0.858356
    outer loop
      vertex 64.0309 1.61612 0.732232
      vertex 63.0604 2.17648 0.0851851
      vertex 64.2678 2.5 0.732232
    endloop
  endfacet
  facet normal 0.707105 -0.707109 0
    outer loop
      vertex 63.7074 0.408709 1.85295
      vertex 64.5913 1.29259 5
      vertex 63.7074 0.408709 5
    endloop
  endfacet
  facet normal 0.707105 -0.707109 0
    outer loop
      vertex 64.5913 1.29259 5
      vertex 63.7074 0.408709 1.85295
      vertex 64.5913 1.29259 1.85295
    endloop
  endfacet
  facet normal 0.965927 -0.258814 0
    outer loop
      vertex 64.5913 1.29259 5
      vertex 64.9148 2.5 1.85295
      vertex 64.9148 2.5 5
    endloop
  endfacet
  facet normal 0.965927 -0.258814 0
    outer loop
      vertex 64.9148 2.5 1.85295
      vertex 64.5913 1.29259 5
      vertex 64.5913 1.29259 1.85295
    endloop
  endfacet
  facet normal -0.84361 0.226046 -0.487059
    outer loop
      vertex 0.732232 87.5 0.732232
      vertex 0.408709 88.7074 1.85295
      vertex 0.969069 88.3839 0.732232
    endloop
  endfacet
  facet normal -0.617567 0.617563 -0.48706
    outer loop
      vertex 1.61612 89.0309 0.732232
      vertex 0.408709 88.7074 1.85295
      vertex 1.29259 89.5913 1.85295
    endloop
  endfacet
  facet normal -0.617566 0.617564 -0.487059
    outer loop
      vertex 0.408709 88.7074 1.85295
      vertex 1.61612 89.0309 0.732232
      vertex 0.969069 88.3839 0.732232
    endloop
  endfacet
  facet normal -0.132788 -0.495572 -0.858357
    outer loop
      vertex 2.5 0.732232 0.732232
      vertex 2.17648 1.93964 0.0851851
      vertex 2.5 1.85295 0.0851851
    endloop
  endfacet
  facet normal 0.226045 -0.84361 -0.487058
    outer loop
      vertex 63.7074 0.408709 1.85295
      vertex 62.5 0.732232 0.732232
      vertex 63.3839 0.969069 0.732232
    endloop
  endfacet
  facet normal 0.226045 -0.84361 -0.487058
    outer loop
      vertex 63.7074 0.408709 1.85295
      vertex 62.5 0.0851851 1.85295
      vertex 62.5 0.732232 0.732232
    endloop
  endfacet
  facet normal 0.132788 -0.495572 -0.858356
    outer loop
      vertex 63.3839 0.969069 0.732232
      vertex 62.5 1.85295 0.0851851
      vertex 62.8235 1.93964 0.0851851
    endloop
  endfacet
  facet normal -0.362784 -0.362784 -0.858357
    outer loop
      vertex 1.61612 0.969069 0.732232
      vertex 1.93964 2.17648 0.0851851
      vertex 2.17648 1.93964 0.0851851
    endloop
  endfacet
  facet normal -0.362784 -0.362784 -0.858357
    outer loop
      vertex 1.93964 2.17648 0.0851851
      vertex 1.61612 0.969069 0.732232
      vertex 0.969069 1.61612 0.732232
    endloop
  endfacet
  facet normal 0.866028 0 -0.499996
    outer loop
      vertex 64.9148 2.5 1.85295
      vertex 64.2678 87.5 0.732232
      vertex 64.9148 87.5 1.85295
    endloop
  endfacet
  facet normal 0.866028 0 -0.499996
    outer loop
      vertex 64.2678 87.5 0.732232
      vertex 64.9148 2.5 1.85295
      vertex 64.2678 2.5 0.732232
    endloop
  endfacet
  facet normal 1 -0 0
    outer loop
      vertex 64.9148 2.5 5
      vertex 64.9148 87.5 1.85295
      vertex 64.9148 87.5 5
    endloop
  endfacet
  facet normal 1 0 0
    outer loop
      vertex 64.9148 87.5 1.85295
      vertex 64.9148 2.5 5
      vertex 64.9148 2.5 1.85295
    endloop
  endfacet
  facet normal -1 0 0
    outer loop
      vertex 2.5 30 5
      vertex 2.5 60 8
      vertex 2.5 60 5
    endloop
  endfacet
  facet normal -1 -0 0
    outer loop
      vertex 2.5 60 8
      vertex 2.5 30 5
      vertex 2.5 30 8
    endloop
  endfacet
  facet normal 1 -0 0
    outer loop
      vertex 2.5 60 5
      vertex 2.5 87.5 2.5
      vertex 2.5 87.5 5
    endloop
  endfacet
  facet normal 1 0 0
    outer loop
      vertex 2.5 87.5 2.5
      vertex 2.5 60 5
      vertex 2.5 60 2.5
    endloop
  endfacet
  facet normal 1 -0 0
    outer loop
      vertex 2.5 2.5 5
      vertex 2.5 30 2.5
      vertex 2.5 30 5
    endloop
  endfacet
  facet normal 1 0 0
    outer loop
      vertex 2.5 30 2.5
      vertex 2.5 2.5 5
      vertex 2.5 2.5 2.5
    endloop
  endfacet
  facet normal 1 -0 0
    outer loop
      vertex 62.5 30 8
      vertex 62.5 60 5
      vertex 62.5 60 8
    endloop
  endfacet
  facet normal 1 0 0
    outer loop
      vertex 62.5 60 5
      vertex 62.5 30 8
      vertex 62.5 30 5
    endloop
  endfacet
  facet normal -1 0 0
    outer loop
      vertex 62.5 2.5 2.5
      vertex 62.5 30 5
      vertex 62.5 30 2.5
    endloop
  endfacet
  facet normal -1 -0 0
    outer loop
      vertex 62.5 30 5
      vertex 62.5 2.5 2.5
      vertex 62.5 2.5 5
    endloop
  endfacet
  facet normal -1 0 0
    outer loop
      vertex 62.5 60 2.5
      vertex 62.5 87.5 5
      vertex 62.5 87.5 2.5
    endloop
  endfacet
  facet normal -1 -0 0
    outer loop
      vertex 62.5 87.5 5
      vertex 62.5 60 2.5
      vertex 62.5 60 5
    endloop
  endfacet
  facet normal 0 1 -0
    outer loop
      vertex 45 87.5 5
      vertex 25 87.5 8
      vertex 45 87.5 8
    endloop
  endfacet
  facet normal 0 1 0
    outer loop
      vertex 25 87.5 8
      vertex 45 87.5 5
      vertex 25 87.5 5
    endloop
  endfacet
  facet normal 0 -1 0
    outer loop
      vertex 2.5 87.5 2.5
      vertex 25 87.5 5
      vertex 2.5 87.5 5
    endloop
  endfacet
  facet normal 0 -1 -0
    outer loop
      vertex 25 87.5 5
      vertex 2.5 87.5 2.5
      vertex 25 87.5 2.5
    endloop
  endfacet
  facet normal 0 -1 0
    outer loop
      vertex 45 87.5 2.5
      vertex 62.5 87.5 5
      vertex 45 87.5 5
    endloop
  endfacet
  facet normal 0 -1 -0
    outer loop
      vertex 62.5 87.5 5
      vertex 45 87.5 2.5
      vertex 62.5 87.5 2.5
    endloop
  endfacet
  facet normal 0 0 1
    outer loop
      vertex 20.9271 84.3532 2.5
      vertex 25 85.5 2.5
      vertex 25 87.5 2.5
    endloop
  endfacet
  facet normal 0 0 1
    outer loop
      vertex 25 85.5 2.5
      vertex 22.4271 83.2634 2.5
      vertex 23 81.5 2.5
    endloop
  endfacet
  facet normal 0 0 1
    outer loop
      vertex 25 85.5 2.5
      vertex 20.9271 84.3532 2.5
      vertex 22.4271 83.2634 2.5
    endloop
  endfacet
  facet normal 0 0 1
    outer loop
      vertex 25 87.5 2.5
      vertex 19.0729 84.3532 2.5
      vertex 20.9271 84.3532 2.5
    endloop
  endfacet
  facet normal 0 0 1
    outer loop
      vertex 19.0729 9.35317 2.5
      vertex 4.5 30 2.5
      vertex 17.5729 8.26336 2.5
    endloop
  endfacet
  facet normal 0 0 1
    outer loop
      vertex 2.5 87.5 2.5
      vertex 17 81.5 2.5
      vertex 17.5729 83.2634 2.5
    endloop
  endfacet
  facet normal -0 0 1
    outer loop
      vertex 2.5 87.5 2.5
      vertex 19.0729 84.3532 2.5
      vertex 25 87.5 2.5
    endloop
  endfacet
  facet normal 0 0 1
    outer loop
      vertex 2.5 87.5 2.5
      vertex 17.5729 83.2634 2.5
      vertex 19.0729 84.3532 2.5
    endloop
  endfacet
  facet normal 0 0 1
    outer loop
      vertex 17.5729 79.7366 2.5
      vertex 2.5 87.5 2.5
      vertex 4.5 60 2.5
    endloop
  endfacet
  facet normal 0 0 1
    outer loop
      vertex 4.5 60 2.5
      vertex 2.5 87.5 2.5
      vertex 2.5 60 2.5
    endloop
  endfacet
  facet normal 0 0 1
    outer loop
      vertex 52.4 3.99045 2.5
      vertex 51.9271 3.64683 2.5
      vertex 52.4 2.6 2.5
    endloop
  endfacet
  facet normal -0 0 1
    outer loop
      vertex 53.4271 79.7366 2.5
      vertex 62.5 60 2.5
      vertex 62.5 87.5 2.5
    endloop
  endfacet
  facet normal 0 0 1
    outer loop
      vertex 62.5 60 2.5
      vertex 53.4271 79.7366 2.5
      vertex 60.5 60 2.5
    endloop
  endfacet
  facet normal 0 0 1
    outer loop
      vertex 53.4271 79.7366 2.5
      vertex 62.5 87.5 2.5
      vertex 54 81.5 2.5
    endloop
  endfacet
  facet normal 0 0 1
    outer loop
      vertex 62.5 87.5 2.5
      vertex 53.4271 83.2634 2.5
      vertex 54 81.5 2.5
    endloop
  endfacet
  facet normal 0 0 1
    outer loop
      vertex 62.5 87.5 2.5
      vertex 51.9271 84.3532 2.5
      vertex 53.4271 83.2634 2.5
    endloop
  endfacet
  facet normal -0 0 1
    outer loop
      vertex 45 87.5 2.5
      vertex 51.9271 84.3532 2.5
      vertex 62.5 87.5 2.5
    endloop
  endfacet
  facet normal 0 0 1
    outer loop
      vertex 51.9271 84.3532 2.5
      vertex 45 87.5 2.5
      vertex 50.0729 84.3532 2.5
    endloop
  endfacet
  facet normal -0 0 1
    outer loop
      vertex 45 85.5 2.5
      vertex 50.0729 84.3532 2.5
      vertex 45 87.5 2.5
    endloop
  endfacet
  facet normal 0 0 1
    outer loop
      vertex 50.0729 84.3532 2.5
      vertex 45 85.5 2.5
      vertex 48.5729 83.2634 2.5
    endloop
  endfacet
  facet normal 0 0 1
    outer loop
      vertex 48.5729 83.2634 2.5
      vertex 45 85.5 2.5
      vertex 48 81.5 2.5
    endloop
  endfacet
  facet normal 0 0 1
    outer loop
      vertex 48 81.5 2.5
      vertex 45 85.5 2.5
      vertex 48 80 2.5
    endloop
  endfacet
  facet normal 0 0 1
    outer loop
      vertex 23 80 2.5
      vertex 45 85.5 2.5
      vertex 25 85.5 2.5
    endloop
  endfacet
  facet normal 0 0 1
    outer loop
      vertex 23 80 2.5
      vertex 25 85.5 2.5
      vertex 23 81.5 2.5
    endloop
  endfacet
  facet normal 0 0 1
    outer loop
      vertex 45 85.5 2.5
      vertex 23 80 2.5
      vertex 48 80 2.5
    endloop
  endfacet
  facet normal 0 0 1
    outer loop
      vertex 22.4271 79.7366 2.5
      vertex 23 80 2.5
      vertex 23 81.5 2.5
    endloop
  endfacet
  facet normal 0 0 1
    outer loop
      vertex 20.9271 78.6468 2.5
      vertex 23 80 2.5
      vertex 22.4271 79.7366 2.5
    endloop
  endfacet
  facet normal 0 0 1
    outer loop
      vertex 23 80 2.5
      vertex 22.4271 8.26336 2.5
      vertex 23 7 2.5
    endloop
  endfacet
  facet normal 0 0 1
    outer loop
      vertex 23 7 2.5
      vertex 22.4271 8.26336 2.5
      vertex 23 6.5 2.5
    endloop
  endfacet
  facet normal 0 0 1
    outer loop
      vertex 20.9271 9.35317 2.5
      vertex 23 80 2.5
      vertex 20.9271 78.6468 2.5
    endloop
  endfacet
  facet normal 0 0 1
    outer loop
      vertex 23 80 2.5
      vertex 20.9271 9.35317 2.5
      vertex 22.4271 8.26336 2.5
    endloop
  endfacet
  facet normal 0 0 1
    outer loop
      vertex 4.5 60 2.5
      vertex 20.9271 78.6468 2.5
      vertex 19.0729 78.6468 2.5
    endloop
  endfacet
  facet normal 0 0 1
    outer loop
      vertex 4.5 30 2.5
      vertex 20.9271 78.6468 2.5
      vertex 4.5 60 2.5
    endloop
  endfacet
  facet normal 0 0 1
    outer loop
      vertex 4.5 60 2.5
      vertex 19.0729 78.6468 2.5
      vertex 17.5729 79.7366 2.5
    endloop
  endfacet
  facet normal 0 0 1
    outer loop
      vertex 20.9271 78.6468 2.5
      vertex 4.5 30 2.5
      vertex 20.9271 9.35317 2.5
    endloop
  endfacet
  facet normal 0 0 1
    outer loop
      vertex 2.5 87.5 2.5
      vertex 17.5729 79.7366 2.5
      vertex 17 81.5 2.5
    endloop
  endfacet
  facet normal 0 0 1
    outer loop
      vertex 20.9271 9.35317 2.5
      vertex 4.5 30 2.5
      vertex 19.0729 9.35317 2.5
    endloop
  endfacet
  facet normal 0 0 1
    outer loop
      vertex 62.5 30 2.5
      vertex 62.4 18.6 2.5
      vertex 62.5 2.5 2.5
    endloop
  endfacet
  facet normal -0 0 1
    outer loop
      vertex 60.5 30 2.5
      vertex 62.4 18.6 2.5
      vertex 62.5 30 2.5
    endloop
  endfacet
  facet normal -0 0 1
    outer loop
      vertex 51.9271 78.6468 2.5
      vertex 60.5 60 2.5
      vertex 53.4271 79.7366 2.5
    endloop
  endfacet
  facet normal 0 0 1
    outer loop
      vertex 60.5 30 2.5
      vertex 52.4 18.6 2.5
      vertex 62.4 18.6 2.5
    endloop
  endfacet
  facet normal -0 0 1
    outer loop
      vertex 50.0729 78.6468 2.5
      vertex 60.5 60 2.5
      vertex 51.9271 78.6468 2.5
    endloop
  endfacet
  facet normal 0 0 1
    outer loop
      vertex 48 80 2.5
      vertex 60.5 60 2.5
      vertex 50.0729 78.6468 2.5
    endloop
  endfacet
  facet normal 0 -0 1
    outer loop
      vertex 52.4 18.6 2.5
      vertex 60.5 60 2.5
      vertex 48 80 2.5
    endloop
  endfacet
  facet normal 0 0 1
    outer loop
      vertex 52.4 18.6 2.5
      vertex 51.9271 9.35317 2.5
      vertex 52.4 9.00955 2.5
    endloop
  endfacet
  facet normal 0 0 1
    outer loop
      vertex 60.5 60 2.5
      vertex 52.4 18.6 2.5
      vertex 60.5 30 2.5
    endloop
  endfacet
  facet normal 0 0 1
    outer loop
      vertex 52.4 18.6 2.5
      vertex 50.0729 9.35317 2.5
      vertex 51.9271 9.35317 2.5
    endloop
  endfacet
  facet normal 0 0 1
    outer loop
      vertex 48 80 2.5
      vertex 50.0729 78.6468 2.5
      vertex 48.5729 79.7366 2.5
    endloop
  endfacet
  facet normal 0 -0 1
    outer loop
      vertex 48.5729 8.26336 2.5
      vertex 52.4 18.6 2.5
      vertex 48 80 2.5
    endloop
  endfacet
  facet normal -0 0 1
    outer loop
      vertex 48 80 2.5
      vertex 48.5729 79.7366 2.5
      vertex 48 81.5 2.5
    endloop
  endfacet
  facet normal 0 0 1
    outer loop
      vertex 52.4 18.6 2.5
      vertex 48.5729 8.26336 2.5
      vertex 50.0729 9.35317 2.5
    endloop
  endfacet
  facet normal 0 0 1
    outer loop
      vertex 48 7 2.5
      vertex 48.5729 8.26336 2.5
      vertex 48 80 2.5
    endloop
  endfacet
  facet normal -0 0 1
    outer loop
      vertex 48 7 2.5
      vertex 48 6.5 2.5
      vertex 48.5729 8.26336 2.5
    endloop
  endfacet
  facet normal 0 0 1
    outer loop
      vertex 48 7 2.5
      vertex 45 4.5 2.5
      vertex 48 6.5 2.5
    endloop
  endfacet
  facet normal -0 0 1
    outer loop
      vertex 23 7 2.5
      vertex 45 4.5 2.5
      vertex 48 7 2.5
    endloop
  endfacet
  facet normal 0 0 1
    outer loop
      vertex 45 4.5 2.5
      vertex 23 7 2.5
      vertex 25 4.5 2.5
    endloop
  endfacet
  facet normal -0 0 1
    outer loop
      vertex 23 6.5 2.5
      vertex 25 4.5 2.5
      vertex 23 7 2.5
    endloop
  endfacet
  facet normal -0 0 1
    outer loop
      vertex 22.4271 4.73664 2.5
      vertex 25 4.5 2.5
      vertex 23 6.5 2.5
    endloop
  endfacet
  facet normal 0 0 1
    outer loop
      vertex 25 4.5 2.5
      vertex 22.4271 4.73664 2.5
      vertex 25 2.5 2.5
    endloop
  endfacet
  facet normal -0 0 1
    outer loop
      vertex 20.9271 3.64683 2.5
      vertex 25 2.5 2.5
      vertex 22.4271 4.73664 2.5
    endloop
  endfacet
  facet normal -0 0 1
    outer loop
      vertex 19.0729 3.64683 2.5
      vertex 25 2.5 2.5
      vertex 20.9271 3.64683 2.5
    endloop
  endfacet
  facet normal 0 0 1
    outer loop
      vertex 2.5 2.5 2.5
      vertex 17.5729 8.26336 2.5
      vertex 4.5 30 2.5
    endloop
  endfacet
  facet normal 0 0 1
    outer loop
      vertex 17.5729 8.26336 2.5
      vertex 2.5 2.5 2.5
      vertex 17 6.5 2.5
    endloop
  endfacet
  facet normal 0 0 1
    outer loop
      vertex 2.5 2.5 2.5
      vertex 4.5 30 2.5
      vertex 2.5 30 2.5
    endloop
  endfacet
  facet normal 0 0 1
    outer loop
      vertex 19.0729 3.64683 2.5
      vertex 2.5 2.5 2.5
      vertex 25 2.5 2.5
    endloop
  endfacet
  facet normal 0 0 1
    outer loop
      vertex 17.5729 4.73664 2.5
      vertex 2.5 2.5 2.5
      vertex 19.0729 3.64683 2.5
    endloop
  endfacet
  facet normal 0 0 1
    outer loop
      vertex 17 6.5 2.5
      vertex 2.5 2.5 2.5
      vertex 17.5729 4.73664 2.5
    endloop
  endfacet
  facet normal -0 0 1
    outer loop
      vertex 62.4 2.6 2.5
      vertex 62.5 2.5 2.5
      vertex 62.4 18.6 2.5
    endloop
  endfacet
  facet normal -0 0 1
    outer loop
      vertex 52.4 2.6 2.5
      vertex 62.5 2.5 2.5
      vertex 62.4 2.6 2.5
    endloop
  endfacet
  facet normal -0 0 1
    outer loop
      vertex 50.0729 3.64683 2.5
      vertex 52.4 2.6 2.5
      vertex 51.9271 3.64683 2.5
    endloop
  endfacet
  facet normal 0 0 1
    outer loop
      vertex 45 4.5 2.5
      vertex 48.5729 4.73664 2.5
      vertex 48 6.5 2.5
    endloop
  endfacet
  facet normal 0 0 1
    outer loop
      vertex 45 2.5 2.5
      vertex 48.5729 4.73664 2.5
      vertex 45 4.5 2.5
    endloop
  endfacet
  facet normal 0 0 1
    outer loop
      vertex 48.5729 4.73664 2.5
      vertex 45 2.5 2.5
      vertex 50.0729 3.64683 2.5
    endloop
  endfacet
  facet normal 0 0 1
    outer loop
      vertex 52.4 2.6 2.5
      vertex 45 2.5 2.5
      vertex 62.5 2.5 2.5
    endloop
  endfacet
  facet normal 0 0 1
    outer loop
      vertex 50.0729 3.64683 2.5
      vertex 45 2.5 2.5
      vertex 52.4 2.6 2.5
    endloop
  endfacet
  facet normal 0 -1 0
    outer loop
      vertex 25 2.5 5
      vertex 45 2.5 8
      vertex 25 2.5 8
    endloop
  endfacet
  facet normal 0 -1 -0
    outer loop
      vertex 45 2.5 8
      vertex 25 2.5 5
      vertex 45 2.5 5
    endloop
  endfacet
  facet normal 0 1 -0
    outer loop
      vertex 25 2.5 2.5
      vertex 2.5 2.5 5
      vertex 25 2.5 5
    endloop
  endfacet
  facet normal 0 1 0
    outer loop
      vertex 2.5 2.5 5
      vertex 25 2.5 2.5
      vertex 2.5 2.5 2.5
    endloop
  endfacet
  facet normal 0 1 -0
    outer loop
      vertex 62.5 2.5 2.5
      vertex 45 2.5 5
      vertex 62.5 2.5 5
    endloop
  endfacet
  facet normal 0 1 0
    outer loop
      vertex 45 2.5 5
      vertex 62.5 2.5 2.5
      vertex 45 2.5 2.5
    endloop
  endfacet
  facet normal 0 0 1
    outer loop
      vertex 62.5 89.9148 5
      vertex 45 87.5 5
      vertex 62.5 87.5 5
    endloop
  endfacet
  facet normal 0 0 1
    outer loop
      vertex 62.5 89.9148 5
      vertex 25 87.5 5
      vertex 45 87.5 5
    endloop
  endfacet
  facet normal -0 0 1
    outer loop
      vertex 2.5 89.9148 5
      vertex 25 87.5 5
      vertex 62.5 89.9148 5
    endloop
  endfacet
  facet normal 0 0 1
    outer loop
      vertex 2.5 89.9148 5
      vertex 2.5 87.5 5
      vertex 25 87.5 5
    endloop
  endfacet
  facet normal -0 0 1
    outer loop
      vertex 1.29259 89.5913 5
      vertex 2.5 87.5 5
      vertex 2.5 89.9148 5
    endloop
  endfacet
  facet normal 0 0 1
    outer loop
      vertex 2.5 87.5 5
      vertex 0.0851851 87.5 5
      vertex 2.5 60 5
    endloop
  endfacet
  facet normal 0 0 1
    outer loop
      vertex 2.5 60 5
      vertex 0.0851851 87.5 5
      vertex 2.5 30 5
    endloop
  endfacet
  facet normal 0 0 1
    outer loop
      vertex 0.0851851 2.5 5
      vertex 2.5 30 5
      vertex 0.0851851 87.5 5
    endloop
  endfacet
  facet normal -0 0 1
    outer loop
      vertex 0.408709 88.7074 5
      vertex 2.5 87.5 5
      vertex 1.29259 89.5913 5
    endloop
  endfacet
  facet normal 0 0 1
    outer loop
      vertex 2.5 30 5
      vertex 0.0851851 2.5 5
      vertex 2.5 2.5 5
    endloop
  endfacet
  facet normal 0 0 1
    outer loop
      vertex 2.5 87.5 5
      vertex 0.408709 88.7074 5
      vertex 0.0851851 87.5 5
    endloop
  endfacet
  facet normal 0 -0 1
    outer loop
      vertex 0.408709 1.29259 5
      vertex 2.5 2.5 5
      vertex 0.0851851 2.5 5
    endloop
  endfacet
  facet normal 0 0 1
    outer loop
      vertex 2.5 2.5 5
      vertex 1.29259 0.408709 5
      vertex 2.5 0.0851851 5
    endloop
  endfacet
  facet normal 0 0 1
    outer loop
      vertex 2.5 2.5 5
      vertex 0.408709 1.29259 5
      vertex 1.29259 0.408709 5
    endloop
  endfacet
  facet normal 0 0 1
    outer loop
      vertex 62.5 87.5 5
      vertex 64.9148 87.5 5
      vertex 64.5913 88.7074 5
    endloop
  endfacet
  facet normal 0 0 1
    outer loop
      vertex 64.9148 87.5 5
      vertex 62.5 60 5
      vertex 64.9148 2.5 5
    endloop
  endfacet
  facet normal 0 0 1
    outer loop
      vertex 62.5 87.5 5
      vertex 64.5913 88.7074 5
      vertex 63.7074 89.5913 5
    endloop
  endfacet
  facet normal -0 0 1
    outer loop
      vertex 62.5 30 5
      vertex 64.9148 2.5 5
      vertex 62.5 60 5
    endloop
  endfacet
  facet normal 0 0 1
    outer loop
      vertex 62.5 87.5 5
      vertex 63.7074 89.5913 5
      vertex 62.5 89.9148 5
    endloop
  endfacet
  facet normal 0 0 1
    outer loop
      vertex 64.9148 87.5 5
      vertex 62.5 87.5 5
      vertex 62.5 60 5
    endloop
  endfacet
  facet normal 0 0 1
    outer loop
      vertex 62.5 2.5 5
      vertex 64.9148 2.5 5
      vertex 62.5 30 5
    endloop
  endfacet
  facet normal 0 0 1
    outer loop
      vertex 64.9148 2.5 5
      vertex 62.5 2.5 5
      vertex 64.5913 1.29259 5
    endloop
  endfacet
  facet normal 0 0 1
    outer loop
      vertex 64.5913 1.29259 5
      vertex 62.5 2.5 5
      vertex 63.7074 0.408709 5
    endloop
  endfacet
  facet normal 0 0 1
    outer loop
      vertex 62.5 2.5 5
      vertex 62.5 0.0851851 5
      vertex 63.7074 0.408709 5
    endloop
  endfacet
  facet normal -0 0 1
    outer loop
      vertex 45 2.5 5
      vertex 62.5 0.0851851 5
      vertex 62.5 2.5 5
    endloop
  endfacet
  facet normal -0 0 1
    outer loop
      vertex 25 2.5 5
      vertex 62.5 0.0851851 5
      vertex 45 2.5 5
    endloop
  endfacet
  facet normal 0 0 1
    outer loop
      vertex 2.5 0.0851851 5
      vertex 25 2.5 5
      vertex 2.5 2.5 5
    endloop
  endfacet
  facet normal 0 0 1
    outer loop
      vertex 25 2.5 5
      vertex 2.5 0.0851851 5
      vertex 62.5 0.0851851 5
    endloop
  endfacet
  facet normal 1 -0 0
    outer loop
      vertex 52.4 9.00955 2.5
      vertex 52.4 18.6 1
      vertex 52.4 18.6 2.5
    endloop
  endfacet
  facet normal 1 0 0
    outer loop
      vertex 52.4 18.6 1
      vertex 52.4 9.00955 2.5
      vertex 52.4 9.00955 1
    endloop
  endfacet
  facet normal 1 -0 0
    outer loop
      vertex 52.4 2.6 2.5
      vertex 52.4 3.99045 1
      vertex 52.4 3.99045 2.5
    endloop
  endfacet
  facet normal 1 0 0
    outer loop
      vertex 52.4 3.99045 1
      vertex 52.4 2.6 2.5
      vertex 52.4 2.6 1
    endloop
  endfacet
  facet normal -1 0 0
    outer loop
      vertex 62.4 2.6 1
      vertex 62.4 18.6 2.5
      vertex 62.4 18.6 1
    endloop
  endfacet
  facet normal -1 -0 0
    outer loop
      vertex 62.4 18.6 2.5
      vertex 62.4 2.6 1
      vertex 62.4 2.6 2.5
    endloop
  endfacet
  facet normal 0 -1 0
    outer loop
      vertex 52.4 18.6 1
      vertex 62.4 18.6 2.5
      vertex 52.4 18.6 2.5
    endloop
  endfacet
  facet normal 0 -1 -0
    outer loop
      vertex 62.4 18.6 2.5
      vertex 52.4 18.6 1
      vertex 62.4 18.6 1
    endloop
  endfacet
  facet normal -0 0 1
    outer loop
      vertex 53.4271 8.26336 1
      vertex 62.4 2.6 1
      vertex 62.4 18.6 1
    endloop
  endfacet
  facet normal 0 0 1
    outer loop
      vertex 62.4 2.6 1
      vertex 53.4271 8.26336 1
      vertex 54 6.5 1
    endloop
  endfacet
  facet normal -0 0 1
    outer loop
      vertex 52.4 18.6 1
      vertex 53.4271 8.26336 1
      vertex 62.4 18.6 1
    endloop
  endfacet
  facet normal 0 0 1
    outer loop
      vertex 53.4271 8.26336 1
      vertex 52.4 18.6 1
      vertex 52.4 9.00955 1
    endloop
  endfacet
  facet normal -0 0 1
    outer loop
      vertex 53.4271 4.73664 1
      vertex 62.4 2.6 1
      vertex 54 6.5 1
    endloop
  endfacet
  facet normal 0 0 1
    outer loop
      vertex 52.4 2.6 1
      vertex 53.4271 4.73664 1
      vertex 52.4 3.99045 1
    endloop
  endfacet
  facet normal 0 0 1
    outer loop
      vertex 53.4271 4.73664 1
      vertex 52.4 2.6 1
      vertex 62.4 2.6 1
    endloop
  endfacet
  facet normal 0 1 -0
    outer loop
      vertex 62.4 2.6 1
      vertex 52.4 2.6 2.5
      vertex 62.4 2.6 2.5
    endloop
  endfacet
  facet normal 0 1 0
    outer loop
      vertex 52.4 2.6 2.5
      vertex 62.4 2.6 1
      vertex 52.4 2.6 1
    endloop
  endfacet
  facet normal 1 -0 0
    outer loop
      vertex 23 7 2.5
      vertex 23 80 0.0851851
      vertex 23 80 2.5
    endloop
  endfacet
  facet normal 1 0 0
    outer loop
      vertex 23 80 0.0851851
      vertex 23 7 2.5
      vertex 23 7 0.0851851
    endloop
  endfacet
  facet normal -1 0 0
    outer loop
      vertex 48 7 0.0851851
      vertex 48 80 2.5
      vertex 48 80 0.0851851
    endloop
  endfacet
  facet normal -1 -0 0
    outer loop
      vertex 48 80 2.5
      vertex 48 7 0.0851851
      vertex 48 7 2.5
    endloop
  endfacet
  facet normal 0 1 -0
    outer loop
      vertex 48 7 0.0851851
      vertex 23 7 2.5
      vertex 48 7 2.5
    endloop
  endfacet
  facet normal 0 1 0
    outer loop
      vertex 23 7 2.5
      vertex 48 7 0.0851851
      vertex 23 7 0.0851851
    endloop
  endfacet
  facet normal 0 -1 0
    outer loop
      vertex 23 80 0.0851851
      vertex 48 80 2.5
      vertex 23 80 2.5
    endloop
  endfacet
  facet normal 0 -1 -0
    outer loop
      vertex 48 80 2.5
      vertex 23 80 0.0851851
      vertex 48 80 0.0851851
    endloop
  endfacet
  facet normal -0 0 1
    outer loop
      vertex 2.5 60 8
      vertex 4.5 30 8
      vertex 4.5 60 8
    endloop
  endfacet
  facet normal 0 0 1
    outer loop
      vertex 4.5 30 8
      vertex 2.5 60 8
      vertex 2.5 30 8
    endloop
  endfacet
  facet normal 1 -0 0
    outer loop
      vertex 4.5 30 8
      vertex 4.5 60 2.5
      vertex 4.5 60 8
    endloop
  endfacet
  facet normal 1 0 0
    outer loop
      vertex 4.5 60 2.5
      vertex 4.5 30 8
      vertex 4.5 30 2.5
    endloop
  endfacet
  facet normal 0 1 0
    outer loop
      vertex 4.5 60 8
      vertex 2.5 60 5
      vertex 2.5 60 8
    endloop
  endfacet
  facet normal 0 1 -0
    outer loop
      vertex 4.5 60 2.5
      vertex 2.5 60 5
      vertex 4.5 60 8
    endloop
  endfacet
  facet normal 0 1 0
    outer loop
      vertex 2.5 60 5
      vertex 4.5 60 2.5
      vertex 2.5 60 2.5
    endloop
  endfacet
  facet normal 0 -1 0
    outer loop
      vertex 2.5 30 5
      vertex 4.5 30 8
      vertex 2.5 30 8
    endloop
  endfacet
  facet normal 0 -1 0
    outer loop
      vertex 4.5 30 2.5
      vertex 2.5 30 5
      vertex 2.5 30 2.5
    endloop
  endfacet
  facet normal 0 -1 0
    outer loop
      vertex 2.5 30 5
      vertex 4.5 30 2.5
      vertex 4.5 30 8
    endloop
  endfacet
  facet normal -1 0 0
    outer loop
      vertex 60.5 30 2.5
      vertex 60.5 60 8
      vertex 60.5 60 2.5
    endloop
  endfacet
  facet normal -1 -0 0
    outer loop
      vertex 60.5 60 8
      vertex 60.5 30 2.5
      vertex 60.5 30 8
    endloop
  endfacet
  facet normal -0 0 1
    outer loop
      vertex 60.5 60 8
      vertex 62.5 30 8
      vertex 62.5 60 8
    endloop
  endfacet
  facet normal 0 0 1
    outer loop
      vertex 62.5 30 8
      vertex 60.5 60 8
      vertex 60.5 30 8
    endloop
  endfacet
  facet normal 0 -1 0
    outer loop
      vertex 60.5 30 8
      vertex 62.5 30 5
      vertex 62.5 30 8
    endloop
  endfacet
  facet normal 0 -1 0
    outer loop
      vertex 60.5 30 2.5
      vertex 62.5 30 5
      vertex 60.5 30 8
    endloop
  endfacet
  facet normal 0 -1 -0
    outer loop
      vertex 62.5 30 5
      vertex 60.5 30 2.5
      vertex 62.5 30 2.5
    endloop
  endfacet
  facet normal 0 1 -0
    outer loop
      vertex 62.5 60 5
      vertex 60.5 60 8
      vertex 62.5 60 8
    endloop
  endfacet
  facet normal 0 1 0
    outer loop
      vertex 60.5 60 2.5
      vertex 62.5 60 5
      vertex 62.5 60 2.5
    endloop
  endfacet
  facet normal 0 1 0
    outer loop
      vertex 62.5 60 5
      vertex 60.5 60 2.5
      vertex 60.5 60 8
    endloop
  endfacet
  facet normal -1 0 0
    outer loop
      vertex 25 2.5 5
      vertex 25 4.5 2.5
      vertex 25 2.5 2.5
    endloop
  endfacet
  facet normal -1 0 0
    outer loop
      vertex 25 4.5 2.5
      vertex 25 2.5 5
      vertex 25 4.5 8
    endloop
  endfacet
  facet normal -1 -0 0
    outer loop
      vertex 25 4.5 8
      vertex 25 2.5 5
      vertex 25 2.5 8
    endloop
  endfacet
  facet normal -0 0 1
    outer loop
      vertex 25 4.5 8
      vertex 45 2.5 8
      vertex 45 4.5 8
    endloop
  endfacet
  facet normal 0 0 1
    outer loop
      vertex 45 2.5 8
      vertex 25 4.5 8
      vertex 25 2.5 8
    endloop
  endfacet
  facet normal 1 0 0
    outer loop
      vertex 45 2.5 5
      vertex 45 4.5 8
      vertex 45 2.5 8
    endloop
  endfacet
  facet normal 1 0 0
    outer loop
      vertex 45 4.5 8
      vertex 45 2.5 5
      vertex 45 4.5 2.5
    endloop
  endfacet
  facet normal 1 0 0
    outer loop
      vertex 45 4.5 2.5
      vertex 45 2.5 5
      vertex 45 2.5 2.5
    endloop
  endfacet
  facet normal 0 1 -0
    outer loop
      vertex 45 4.5 2.5
      vertex 25 4.5 8
      vertex 45 4.5 8
    endloop
  endfacet
  facet normal 0 1 0
    outer loop
      vertex 25 4.5 8
      vertex 45 4.5 2.5
      vertex 25 4.5 2.5
    endloop
  endfacet
  facet normal -1 0 0
    outer loop
      vertex 25 85.5 2.5
      vertex 25 87.5 5
      vertex 25 87.5 2.5
    endloop
  endfacet
  facet normal -1 0 0
    outer loop
      vertex 25 85.5 8
      vertex 25 87.5 5
      vertex 25 85.5 2.5
    endloop
  endfacet
  facet normal -1 0 0
    outer loop
      vertex 25 87.5 5
      vertex 25 85.5 8
      vertex 25 87.5 8
    endloop
  endfacet
  facet normal -0 0 1
    outer loop
      vertex 25 87.5 8
      vertex 45 85.5 8
      vertex 45 87.5 8
    endloop
  endfacet
  facet normal 0 0 1
    outer loop
      vertex 45 85.5 8
      vertex 25 87.5 8
      vertex 25 85.5 8
    endloop
  endfacet
  facet normal 1 -0 0
    outer loop
      vertex 45 85.5 8
      vertex 45 87.5 5
      vertex 45 87.5 8
    endloop
  endfacet
  facet normal 1 0 0
    outer loop
      vertex 45 85.5 2.5
      vertex 45 87.5 5
      vertex 45 85.5 8
    endloop
  endfacet
  facet normal 1 0 0
    outer loop
      vertex 45 87.5 5
      vertex 45 85.5 2.5
      vertex 45 87.5 2.5
    endloop
  endfacet
  facet normal 0 -1 0
    outer loop
      vertex 25 85.5 2.5
      vertex 45 85.5 8
      vertex 25 85.5 8
    endloop
  endfacet
  facet normal 0 -1 -0
    outer loop
      vertex 45 85.5 8
      vertex 25 85.5 2.5
      vertex 45 85.5 2.5
    endloop
  endfacet
endsolid OpenSCAD_Model
